<svg width="620" height="480" xmlns="http://www.w3.org/2000/svg" viewBox="0 0 620 480" aria-label="Image generation flow">
            <defs>
              <marker id="arrow3" markerWidth="10" markerHeight="10" refX="9" refY="5" orient="auto">
                <path d="M 0 0 L 10 5 L 0 10 z" fill="#6d5a47"></path>
              </marker>
            </defs>
            <rect x="25" y="28" width="135" height="48" rx="12" fill="#f8e8d7" stroke="#caa57c"></rect>
            <text x="92" y="57" text-anchor="middle" font-size="14">prompt + image</text>
            <rect x="205" y="28" width="140" height="48" rx="12" fill="#eaf4f5" stroke="#7ca5aa"></rect>
            <text x="275" y="57" text-anchor="middle" font-size="14">Processor</text>
            <rect x="390" y="28" width="160" height="48" rx="12" fill="#fbe9e1" stroke="#c98762"></rect>
            <text x="470" y="57" text-anchor="middle" font-size="14">Main LLM</text>

            <rect x="390" y="112" width="160" height="44" rx="12" fill="#edf6f7" stroke="#82a9af"></rect>
            <text x="470" y="138" text-anchor="middle" font-size="14">Vision Encoder</text>
            <rect x="390" y="192" width="160" height="44" rx="12" fill="#f0f5e6" stroke="#96ab76"></rect>
            <text x="470" y="218" text-anchor="middle" font-size="14">Query Tokens + Gen Mask</text>
            <rect x="390" y="272" width="160" height="44" rx="12" fill="#f5ead9" stroke="#b99461"></rect>
            <text x="470" y="298" text-anchor="middle" font-size="14">Connector</text>
            <rect x="195" y="352" width="160" height="44" rx="12" fill="#eef5e3" stroke="#96ab76"></rect>
            <text x="275" y="378" text-anchor="middle" font-size="14">ByT5 optional</text>
            <rect x="390" y="352" width="160" height="44" rx="12" fill="#eaf0fb" stroke="#88a0c9"></rect>
            <text x="470" y="378" text-anchor="middle" font-size="14">Diffusion</text>
            <rect x="390" y="432" width="160" height="32" rx="10" fill="#f0f0f0" stroke="#aaa"></rect>
            <text x="470" y="453" text-anchor="middle" font-size="13">output image</text>

            <g stroke="#6d5a47" stroke-width="2" marker-end="url(#arrow3)">
              <line x1="160" y1="52" x2="205" y2="52"></line>
              <line x1="345" y1="52" x2="390" y2="52"></line>
              <line x1="470" y1="76" x2="470" y2="112"></line>
              <line x1="470" y1="156" x2="470" y2="192"></line>
              <line x1="470" y1="236" x2="470" y2="272"></line>
              <line x1="355" y1="374" x2="390" y2="374"></line>
              <line x1="470" y1="316" x2="470" y2="352"></line>
              <line x1="470" y1="396" x2="470" y2="432"></line>
            </g>
          </svg>
