<svg width="980" height="760" xmlns="http://www.w3.org/2000/svg" viewBox="0 0 980 760" aria-label="Overall architecture">
          <defs>
            <marker id="arrow1" markerWidth="10" markerHeight="10" refX="9" refY="5" orient="auto">
              <path d="M 0 0 L 10 5 L 0 10 z" fill="#6d5a47"></path>
            </marker>
          </defs>

          <rect x="35" y="30" width="130" height="48" rx="12" fill="#f8e8d7" stroke="#caa57c"></rect>
          <text x="100" y="59" text-anchor="middle" font-size="16" fill="#1c1a17">User Input</text>

          <rect x="210" y="25" width="180" height="60" rx="14" fill="#eaf4f5" stroke="#7ca5aa"></rect>
          <text x="300" y="50" text-anchor="middle" font-size="16">BailingMM2Processor</text>
          <text x="300" y="70" text-anchor="middle" font-size="12" fill="#6f665d">text image video audio</text>

          <line x1="165" y1="54" x2="210" y2="54" stroke="#6d5a47" stroke-width="2.2" marker-end="url(#arrow1)"></line>

          <rect x="455" y="20" width="480" height="280" rx="16" fill="#fffaf4" stroke="#d3b898"></rect>
          <text x="695" y="46" text-anchor="middle" font-size="20">Unified Multimodal Backbone</text>

          <rect x="490" y="76" width="150" height="54" rx="12" fill="#edf6f7" stroke="#82a9af"></rect>
          <text x="565" y="106" text-anchor="middle" font-size="15">Vision Encoder</text>

          <rect x="490" y="165" width="150" height="54" rx="12" fill="#edf6f7" stroke="#82a9af"></rect>
          <text x="565" y="195" text-anchor="middle" font-size="15">Audio Encoder</text>

          <rect x="680" y="76" width="150" height="54" rx="12" fill="#eef5e3" stroke="#96ab76"></rect>
          <text x="755" y="106" text-anchor="middle" font-size="15">Image Projector</text>

          <rect x="680" y="165" width="150" height="54" rx="12" fill="#eef5e3" stroke="#96ab76"></rect>
          <text x="755" y="195" text-anchor="middle" font-size="15">Audio Projector</text>

          <rect x="575" y="245" width="170" height="54" rx="12" fill="#fbe9e1" stroke="#c98762"></rect>
          <text x="660" y="275" text-anchor="middle" font-size="15">MoE LLM</text>

          <rect x="775" y="245" width="130" height="54" rx="12" fill="#f5ead9" stroke="#b99461"></rect>
          <text x="840" y="268" text-anchor="middle" font-size="14">MultiRouter</text>
          <text x="840" y="286" text-anchor="middle" font-size="12" fill="#6f665d">text image audio</text>

          <line x1="390" y1="54" x2="490" y2="103" stroke="#6d5a47" stroke-width="2" marker-end="url(#arrow1)"></line>
          <line x1="390" y1="54" x2="490" y2="192" stroke="#6d5a47" stroke-width="2" marker-end="url(#arrow1)"></line>
          <line x1="640" y1="103" x2="680" y2="103" stroke="#6d5a47" stroke-width="2" marker-end="url(#arrow1)"></line>
          <line x1="640" y1="192" x2="680" y2="192" stroke="#6d5a47" stroke-width="2" marker-end="url(#arrow1)"></line>
          <line x1="755" y1="130" x2="690" y2="245" stroke="#6d5a47" stroke-width="2" marker-end="url(#arrow1)"></line>
          <line x1="755" y1="219" x2="650" y2="245" stroke="#6d5a47" stroke-width="2" marker-end="url(#arrow1)"></line>
          <line x1="745" y1="272" x2="775" y2="272" stroke="#6d5a47" stroke-width="2" marker-end="url(#arrow1)"></line>

          <rect x="455" y="335" width="480" height="175" rx="16" fill="#f7fbfd" stroke="#b8d0d6"></rect>
          <text x="695" y="362" text-anchor="middle" font-size="20">Image Generation Branch</text>
          <rect x="490" y="390" width="135" height="48" rx="12" fill="#edf6f7" stroke="#82a9af"></rect>
          <text x="557" y="418" text-anchor="middle" font-size="14">Query Tokens</text>
          <rect x="650" y="390" width="135" height="48" rx="12" fill="#fbe9e1" stroke="#c98762"></rect>
          <text x="717" y="418" text-anchor="middle" font-size="14">LLM Hidden States</text>
          <rect x="810" y="390" width="95" height="48" rx="12" fill="#eef5e3" stroke="#96ab76"></rect>
          <text x="857" y="418" text-anchor="middle" font-size="14">Connector</text>
          <rect x="570" y="455" width="110" height="40" rx="10" fill="#f5ead9" stroke="#b99461"></rect>
          <text x="625" y="480" text-anchor="middle" font-size="13">ByT5 optional</text>
          <rect x="715" y="455" width="110" height="40" rx="10" fill="#f8e8d7" stroke="#caa57c"></rect>
          <text x="770" y="480" text-anchor="middle" font-size="13">Diffusion</text>
          <rect x="850" y="455" width="65" height="40" rx="10" fill="#f0f0f0" stroke="#aaa"></rect>
          <text x="882" y="480" text-anchor="middle" font-size="13">Image</text>
          <line x1="625" y1="414" x2="650" y2="414" stroke="#6d5a47" stroke-width="2" marker-end="url(#arrow1)"></line>
          <line x1="785" y1="414" x2="810" y2="414" stroke="#6d5a47" stroke-width="2" marker-end="url(#arrow1)"></line>
          <line x1="680" y1="474" x2="715" y2="474" stroke="#6d5a47" stroke-width="2" marker-end="url(#arrow1)"></line>
          <line x1="825" y1="474" x2="850" y2="474" stroke="#6d5a47" stroke-width="2" marker-end="url(#arrow1)"></line>
          <line x1="660" y1="299" x2="660" y2="390" stroke="#6d5a47" stroke-width="2" marker-end="url(#arrow1)"></line>

          <rect x="455" y="540" width="480" height="175" rx="16" fill="#fbf8fd" stroke="#cabfe0"></rect>
          <text x="695" y="568" text-anchor="middle" font-size="20">Talker and Audio Generation Branch</text>
          <rect x="485" y="600" width="110" height="46" rx="12" fill="#efe8fa" stroke="#aa93cc"></rect>
          <text x="540" y="628" text-anchor="middle" font-size="14">Speaker Extractor</text>
          <rect x="620" y="600" width="110" height="46" rx="12" fill="#efe8fa" stroke="#aa93cc"></rect>
          <text x="675" y="628" text-anchor="middle" font-size="14">Talker Qwen2</text>
          <rect x="755" y="600" width="95" height="46" rx="12" fill="#f2ecfb" stroke="#b39ccf"></rect>
          <text x="802" y="628" text-anchor="middle" font-size="14">CFM DiT</text>
          <rect x="875" y="600" width="40" height="46" rx="12" fill="#f2ecfb" stroke="#b39ccf"></rect>
          <text x="895" y="628" text-anchor="middle" font-size="14">VAE</text>
          <rect x="760" y="665" width="110" height="34" rx="10" fill="#f5ead9" stroke="#b99461"></rect>
          <text x="815" y="687" text-anchor="middle" font-size="12">waveform output</text>
          <line x1="595" y1="623" x2="620" y2="623" stroke="#6d5a47" stroke-width="2" marker-end="url(#arrow1)"></line>
          <line x1="730" y1="623" x2="755" y2="623" stroke="#6d5a47" stroke-width="2" marker-end="url(#arrow1)"></line>
          <line x1="850" y1="623" x2="875" y2="623" stroke="#6d5a47" stroke-width="2" marker-end="url(#arrow1)"></line>
          <line x1="895" y1="646" x2="845" y2="665" stroke="#6d5a47" stroke-width="2" marker-end="url(#arrow1)"></line>
          <line x1="802" y1="600" x2="700" y2="600" stroke="#6d5a47" stroke-width="1.8" marker-end="url(#arrow1)"></line>
        </svg>
